<svg width="20" height="18" viewBox="0 0 20 18" fill="none" xmlns="http://www.w3.org/2000/svg">
<path d="M11.7691 17.5631L19.5607 10.0643C20.1464 9.50006 20.1464 8.50169 19.5607 7.93548L11.7691 0.436666C11.1607 -0.147553 10.1777 -0.145552 9.57343 0.442668C8.96914 1.03089 8.96914 1.97924 9.57756 2.56546L14.7037 7.50131L1.55211 7.50131C0.693276 7.50131 -4.29527e-07 8.17357 -3.93321e-07 9.00188C-3.57114e-07 9.83019 0.693276 10.5024 1.55211 10.5024L14.7037 10.5024L9.57757 15.4363C9.27335 15.7304 9.12228 16.1145 9.12228 16.5007C9.12228 16.8828 9.27335 17.267 9.57343 17.5591C10.1777 18.1453 11.1607 18.1473 11.7691 17.5631Z" fill="#594C74"/>
</svg>
