<svg width="8" height="8" viewBox="0 0 8 8" fill="none" xmlns="http://www.w3.org/2000/svg">
<path fill-rule="evenodd" clip-rule="evenodd" d="M0.279425 7.72027C0.465072 7.90718 0.709211 8 0.95335 8C1.19749 8 1.44163 7.90718 1.62727 7.72027L4.00046 5.34717L6.37376 7.72049C6.55929 7.90725 6.80327 8 7.04726 8C7.28997 8 7.53522 7.90725 7.72075 7.72049C8.09308 7.34824 8.09308 6.74602 7.72075 6.37376L5.34735 4.00034L7.72058 1.62721C8.09314 1.25466 8.09314 0.651965 7.72058 0.279414C7.34801 -0.0931378 6.74529 -0.0931378 6.37273 0.279414L3.99954 2.65251L1.62624 0.279192C1.25518 -0.0930639 0.652847 -0.0930639 0.279247 0.279192C-0.0930824 0.651447 -0.0930824 1.25366 0.279247 1.62592L2.65265 3.99934L0.279425 6.37247C-0.0931415 6.74502 -0.0931415 7.34772 0.279425 7.72027Z" fill="#594C74"/>
</svg>
